<svg width="142" height="229" viewBox="0 0 142 229" fill="none" xmlns="http://www.w3.org/2000/svg">
<path d="M136.997 10.406C135.982 9.97017 112.267 0.0473633 71 0.0473633C29.7326 0.0473633 5.99428 9.98211 5.00917 10.406C1.96426 11.7016 0 14.6032 0 17.8033V220.851C0 225.317 3.80912 228.953 8.48394 228.953H133.516C138.191 228.953 142 225.317 142 220.851V17.8033C142 14.6092 140.036 11.7076 136.997 10.406ZM125.032 212.749H16.9679V23.4692C25.7324 20.7467 44.2526 16.257 71 16.257C97.7474 16.257 116.268 20.7467 125.032 23.4692V212.749ZM49.4349 39.1774C49.6976 52.8078 49.8648 66.7009 49.9305 80.8567C49.9961 95.0185 50.032 108.774 50.032 122.142C50.032 135.51 49.9961 147.88 49.9305 159.26C49.8648 170.64 49.6976 180.431 49.4349 188.634H68.4865C68.3551 182.813 68.2894 175.601 68.2894 166.998C68.2894 158.394 68.2536 148.973 68.1879 138.716C68.1163 128.465 68.1163 117.843 68.1879 106.858C68.1879 106.703 68.1879 106.547 68.1879 106.386C68.4089 106.344 68.6298 106.297 68.8566 106.249C69.991 111.407 71.1194 116.661 72.2538 122.035C74.1046 130.835 75.8599 139.438 77.5137 147.839C79.1675 156.245 80.6541 164.048 81.9796 171.261C83.299 178.473 84.3618 184.658 85.1558 189.817L104.607 188.628C103.413 183.47 101.957 177.052 100.243 169.374C98.5235 161.702 96.7026 153.528 94.7861 144.859C92.8636 136.196 91.0128 127.659 89.2276 119.258C87.7052 112.088 86.3439 105.52 85.1618 99.5501C88.6843 97.1798 91.6337 94.0931 93.992 90.278C96.5712 86.1107 97.8608 80.9164 97.8608 74.6953C97.8608 68.4741 96.7981 63.5784 94.6846 59.214C92.5651 54.8497 89.4545 51.2077 85.3588 48.3001C81.2572 45.3926 76.1943 43.1716 70.1761 41.6491C64.152 40.1326 57.2382 39.3027 49.4349 39.1654V39.1774ZM77.3227 66.1695C78.5824 68.289 79.2093 71.1966 79.2093 74.9042C79.2093 77.9492 78.3496 80.6955 76.6301 83.1434C74.9106 85.5913 72.5284 87.4779 69.4835 88.7974C69.0895 88.9705 68.6835 89.1317 68.2715 89.281C68.2835 84.236 68.2954 79.2149 68.2954 74.2117C68.2954 69.5249 68.3074 64.9695 68.3312 60.5216C69.2447 60.7604 70.0985 61.0231 70.8746 61.3096C73.9195 62.438 76.0689 64.056 77.3227 66.1695Z" fill="#155DFC"/>
</svg>
