<svg width="444" height="262" viewBox="0 0 444 262" fill="none" xmlns="http://www.w3.org/2000/svg">
<path d="M221.536 10C351.027 10 424.38 40.6898 427.445 41.998L427.439 41.9922C430.909 43.4772 433.06 46.5045 433.06 49.9033V242.499C433.06 247.351 428.566 251.301 423.035 251.301H20.0234C14.4996 251.301 10 247.351 10 242.499V49.9092C10.0002 46.5105 12.151 43.4766 15.6201 41.998C18.6822 40.6848 92.0424 10 221.536 10ZM221.529 27.5957C121.804 27.5957 56.1251 46.6263 32.5186 54.8066C31.0208 55.3251 30.0537 56.407 30.0537 57.5527V230.657C30.0537 232.309 32.0067 233.698 34.3174 233.698H408.749C411.06 233.698 413.012 232.302 413.012 230.657H413.005V57.5527C413.005 56.4006 412.039 55.3251 410.541 54.8066C386.928 46.6263 321.255 27.5957 221.529 27.5957ZM355.475 83.4307C362.138 83.4308 367.457 86.4782 371.432 92.5781V92.5908C375.4 98.6908 378.274 106.954 380.047 117.381C381.82 127.808 382.71 139.688 382.71 153.021C382.71 160.965 382.39 168.518 381.75 175.681C381.116 182.849 380.118 189.34 378.773 195.151C377.429 200.97 375.689 206.001 373.563 210.258C371.432 214.514 368.878 217.779 365.901 220.045C362.919 222.311 359.443 223.45 355.475 223.45C349.234 223.45 344.093 220.327 340.048 214.086C336.009 207.845 333.026 199.402 331.112 188.764C329.198 178.125 328.238 166.207 328.238 153.015C328.238 145.071 328.59 137.589 329.301 130.567C330.011 123.546 331.074 117.164 332.495 111.416C333.91 105.668 335.689 100.707 337.814 96.5205C339.946 92.3345 342.5 89.1082 345.477 86.8359C348.453 84.5702 351.781 83.4307 355.475 83.4307ZM149.085 83.4307C152.202 83.4307 155.076 84.1737 157.7 85.665C160.318 87.1564 162.623 89.3587 164.613 92.2646C166.604 95.1705 168.236 98.7866 169.51 103.113C170.79 107.44 171.564 112.369 171.853 117.899C172.134 123.57 172.351 128.038 172.492 131.303C172.633 134.567 172.704 138.261 172.704 142.37C169.299 142.082 165.151 141.941 160.254 141.941H146.53C144.066 141.941 141.646 141.954 139.259 141.979C139.137 145.583 139.08 149.469 139.08 153.643C139.08 164.281 139.432 173.293 140.143 180.667C140.853 188.041 141.807 193.648 143.017 197.476C144.22 201.31 145.532 203.224 146.953 203.224C147.945 203.224 148.867 202.442 149.718 200.881C150.569 199.325 151.312 196.624 151.952 192.796C152.592 188.968 153.047 183.719 153.335 177.05C153.581 171.22 153.666 164.027 153.589 155.477L153.546 151.734H173.549C173.83 162.801 173.549 172.768 172.697 181.633C171.846 190.498 170.355 198.051 168.229 204.292C166.104 210.533 163.339 215.289 159.934 218.547C156.528 221.818 152.484 223.443 147.805 223.443C141.135 223.443 135.707 220.429 131.527 214.399C127.341 208.37 124.256 200.106 122.271 189.608C120.287 179.117 119.295 167.058 119.295 153.438C119.295 145.347 119.685 137.723 120.466 130.561C121.24 123.398 122.451 116.946 124.083 111.198C125.715 105.457 127.699 100.528 130.042 96.4121C132.378 92.2963 135.144 89.1082 138.338 86.8359C141.532 84.5702 145.11 83.4307 149.085 83.4307ZM207.595 83.4307C212.984 83.4307 217.382 85.2742 220.787 88.9609C224.192 92.6542 226.6 97.1926 228.021 102.582C229.153 106.839 229.934 111.518 230.363 116.626C230.792 121.734 231.003 126.06 231.003 129.606H211V122.054C211 119.436 210.853 116.562 210.571 113.438C210.283 109.464 209.829 106.807 209.188 105.456C208.555 104.106 207.735 103.434 206.743 103.434C206.026 103.434 205.252 104.145 204.401 105.559C203.55 106.98 202.731 109.073 201.956 111.838C201.175 114.609 200.497 118.008 199.934 122.054C199.364 126.093 198.903 130.74 198.551 135.988C198.199 141.237 198.02 147.126 198.02 153.648C198.02 166.418 198.449 176.384 199.3 183.547C200.151 190.709 201.175 195.785 202.385 198.762C203.588 201.738 204.689 203.229 205.681 203.229C206.532 203.229 207.384 202.449 208.235 200.887C209.087 199.325 209.791 196.38 210.36 192.054C210.924 187.733 211.32 181.492 211.531 173.331C211.716 166.196 211.71 157.184 211.517 146.299L211.423 141.525H231.637C232.066 156.42 231.886 169.049 231.105 179.399C230.325 189.756 228.942 198.198 226.958 204.721C224.967 211.243 222.24 215.999 218.765 218.976C215.289 221.952 211.064 223.443 206.104 223.443C199.581 223.443 194.256 220.467 190.146 214.508C186.031 208.549 183.015 200.324 181.102 189.826C179.188 179.335 178.228 167.276 178.228 153.655C178.228 145.142 178.619 137.269 179.399 130.036C180.174 122.803 181.383 116.312 183.016 110.564C184.648 104.817 186.632 99.9262 188.975 95.8809C191.317 91.8355 194.044 88.7501 197.168 86.625C200.285 84.4936 203.767 83.4307 207.595 83.4307ZM265.689 83.4307C268.807 83.4307 271.68 84.1737 274.305 85.665C276.923 87.1564 279.227 89.3587 281.218 92.2646C283.208 95.1705 284.841 98.7866 286.114 103.113C287.394 107.44 288.169 112.369 288.457 117.899C288.739 123.57 288.957 128.038 289.098 131.303C289.238 134.567 289.309 138.261 289.309 142.37C285.903 142.082 281.755 141.941 276.858 141.941H263.136C260.672 141.941 258.252 141.954 255.864 141.979C255.743 145.583 255.685 149.469 255.685 153.643C255.685 164.281 256.037 173.293 256.747 180.667C257.458 188.041 258.411 193.648 259.621 197.476C260.824 201.309 262.137 203.223 263.558 203.224C264.55 203.224 265.472 202.443 266.323 200.881C267.175 199.325 267.917 196.624 268.557 192.796C269.197 188.968 269.651 183.719 269.939 177.05C270.186 171.22 270.27 164.027 270.193 155.477L270.15 151.734H290.153C290.435 162.801 290.153 172.768 289.302 181.633C288.45 190.498 286.959 198.051 284.834 204.292C282.709 210.533 279.944 215.289 276.539 218.547C273.134 221.818 269.088 223.443 264.409 223.443C257.74 223.443 252.312 220.429 248.132 214.399C243.946 208.37 240.86 200.106 238.876 189.608C236.892 179.117 235.899 167.058 235.899 153.438C235.899 145.347 236.29 137.723 237.071 130.561C237.846 123.398 239.055 116.946 240.688 111.198C242.32 105.457 244.304 100.528 246.646 96.4121C248.983 92.2963 251.748 89.1082 254.942 86.8359C258.136 84.5702 261.715 83.4307 265.689 83.4307ZM60.3496 61.7129C68.7154 61.8601 76.1275 62.7438 82.5859 64.376C89.0379 66.0082 94.4659 68.3887 98.8633 71.5059C103.254 74.6231 106.589 78.528 108.861 83.207C111.127 87.8861 112.267 93.135 112.267 99.8047C112.267 106.474 110.884 112.043 108.119 116.511C105.591 120.601 102.429 123.91 98.6523 126.451C99.9197 132.852 101.379 139.893 103.011 147.58C104.925 156.586 106.91 165.74 108.971 175.027V175.015C111.025 184.309 112.977 193.072 114.82 201.297C116.657 209.528 118.22 216.409 119.5 221.939L98.6455 223.213C97.7942 217.683 96.6548 211.051 95.2402 203.319C93.8193 195.587 92.2252 187.221 90.4521 178.209C88.6791 169.203 86.7977 159.979 84.8135 150.544C83.5973 144.783 82.3871 139.15 81.1709 133.62C80.9278 133.671 80.6908 133.723 80.4541 133.768V134.273C80.3837 146.051 80.3837 157.438 80.4541 168.428C80.5245 179.424 80.5635 189.525 80.5635 198.749C80.5635 207.973 80.6336 215.705 80.7744 221.946H60.3496C60.6312 213.151 60.8105 202.653 60.8809 190.453C60.9513 178.253 60.9893 164.991 60.9893 150.659C60.9893 136.328 60.9513 121.58 60.8809 106.397C60.8105 91.221 60.6312 76.3261 60.3496 61.7129ZM317.389 62.3594C317.248 66.3342 317.14 71.9732 317.069 79.2764H317.044C317.025 80.9534 317.011 82.6951 317.005 84.4873H325.877V102.787H317.037C317.044 103.357 317.05 103.914 317.05 104.49C317.12 113.995 317.159 124.032 317.159 134.6C317.159 145.167 317.197 155.735 317.268 166.303C317.338 176.877 317.408 186.946 317.479 196.521C317.549 206.097 317.588 214.578 317.588 221.952H297.162C297.303 214.578 297.374 206.065 297.374 196.419V165.989C297.374 155.345 297.335 144.707 297.265 134.068C297.194 123.43 297.124 113.394 297.054 103.959C297.047 103.562 297.047 103.178 297.047 102.787H291.843V84.4873H296.958V78.957C296.958 71.7241 296.887 66.1871 296.746 62.3594H317.389ZM355.48 103.428C354.911 103.428 354.277 104.138 353.566 105.553C352.856 106.974 352.184 109.067 351.544 111.832C350.904 114.604 350.335 118.003 349.842 122.048C349.343 126.093 348.952 130.702 348.67 135.88C348.388 141.058 348.248 146.768 348.248 153.009C348.248 162.232 348.6 170.637 349.311 178.222C350.021 185.813 350.936 191.875 352.075 196.413C353.208 200.957 354.341 203.223 355.48 203.224C356.185 203.224 356.895 202.372 357.605 200.669C358.316 198.966 358.95 196.592 359.52 193.539C360.083 190.492 360.614 186.876 361.113 182.689C361.613 178.503 361.997 173.895 362.285 168.857L362.291 168.863C362.579 163.826 362.72 158.539 362.72 153.009C362.72 142.511 362.33 133.576 361.549 126.195C360.768 118.822 359.808 113.182 358.675 109.277C357.535 105.379 356.473 103.428 355.48 103.428ZM148.227 103.421C147.375 103.421 146.524 103.991 145.673 105.124C144.822 106.263 144.008 108.068 143.228 110.552C142.447 113.035 141.743 116.268 141.103 120.236V120.229C140.917 121.362 140.751 122.559 140.591 123.82C142.505 123.84 144.412 123.846 146.313 123.846C149.296 123.846 151.709 123.82 153.546 123.763V121.081C153.546 117.113 153.297 113.848 152.804 111.294C152.304 108.74 151.633 106.794 150.781 105.443C149.93 104.093 149.078 103.421 148.227 103.421ZM264.825 103.421C263.974 103.421 263.123 103.991 262.271 105.124C261.42 106.263 260.607 108.068 259.826 110.552C259.045 113.035 258.341 116.268 257.701 120.236V120.229C257.516 121.362 257.348 122.559 257.188 123.82C259.102 123.84 261.01 123.846 262.911 123.846C265.894 123.846 268.307 123.82 270.145 123.763V121.081C270.145 117.113 269.894 113.848 269.401 111.294C268.902 108.74 268.23 106.794 267.379 105.443C266.528 104.093 265.676 103.421 264.825 103.421ZM80.6084 84.6025C80.5828 89.371 80.5693 94.2548 80.5693 99.2793C80.5693 104.643 80.5567 110.027 80.5439 115.436C80.9856 115.276 81.4213 115.103 81.8438 114.917C85.1079 113.502 87.6615 111.48 89.5049 108.855V108.861C91.3483 106.237 92.2705 103.293 92.2705 100.028C92.2705 96.0536 91.5921 92.9363 90.248 90.6641C88.9039 88.3918 86.5993 86.657 83.335 85.4473C82.503 85.1401 81.5876 84.8585 80.6084 84.6025ZM253.976 50.876C256.67 53.9931 260.146 57.4371 264.402 61.1943C268.659 64.9516 272.705 68.1773 276.532 70.8721L270.573 79.8086C268.73 78.8165 266.215 77.3305 263.021 75.3398V75.3467C259.827 73.3624 256.6 71.2692 253.336 69.0674C250.071 66.8719 247.376 64.9194 245.251 63.2168L253.976 50.876Z" fill="#155DFC"/>
</svg>
