<svg width="587" height="256" viewBox="0 0 587 256" fill="none" xmlns="http://www.w3.org/2000/svg">
<path fill-rule="evenodd" clip-rule="evenodd" d="M403.361 118.613C408.816 118.613 413.171 121.107 416.425 126.099V126.11C419.673 131.102 422.026 137.865 423.477 146.398C424.929 154.932 425.658 164.655 425.658 175.567C425.658 182.068 425.396 188.25 424.872 194.111C424.353 199.978 423.535 205.29 422.435 210.047C421.335 214.808 419.909 218.926 418.17 222.41C416.425 225.894 414.334 228.565 411.897 230.42C409.455 232.274 406.61 233.207 403.361 233.207C398.252 233.207 394.044 230.65 390.732 225.543C387.426 220.435 384.984 213.525 383.417 204.819C381.851 196.112 381.065 186.358 381.065 175.561C381.065 169.06 381.353 162.937 381.934 157.19C382.516 151.444 383.386 146.221 384.549 141.516C385.707 136.812 387.164 132.752 388.904 129.326C390.649 125.9 392.74 123.259 395.177 121.4C397.613 119.545 400.338 118.613 403.361 118.613ZM403.366 134.979C402.9 134.979 402.381 135.56 401.799 136.718C401.218 137.881 400.668 139.594 400.144 141.857C399.62 144.125 399.154 146.907 398.75 150.218C398.341 153.528 398.021 157.3 397.791 161.538C397.56 165.776 397.445 170.449 397.445 175.557C397.445 183.105 397.734 189.983 398.315 196.191C398.897 202.404 399.646 207.365 400.579 211.079C401.506 214.798 402.434 216.653 403.366 216.653C403.943 216.653 404.524 215.956 405.106 214.562C405.687 213.169 406.206 211.226 406.673 208.727C407.134 206.234 407.569 203.274 407.978 199.848C408.386 196.422 408.701 192.65 408.937 188.527L408.942 188.532C409.177 184.409 409.293 180.082 409.293 175.557C409.293 166.965 408.973 159.652 408.334 153.612C407.695 147.577 406.909 142.962 405.981 139.766C405.049 136.576 404.178 134.979 403.366 134.979Z" fill="#155DFC"/>
<path fill-rule="evenodd" clip-rule="evenodd" d="M234.402 118.613C236.953 118.613 239.306 119.221 241.454 120.441C243.598 121.662 245.484 123.464 247.114 125.843C248.743 128.221 250.079 131.18 251.122 134.721C252.17 138.263 252.804 142.297 253.04 146.823C253.271 151.464 253.448 155.12 253.564 157.792C253.679 160.464 253.737 163.487 253.737 166.85C250.95 166.614 247.554 166.499 243.545 166.499H232.31C230.293 166.499 228.312 166.509 226.357 166.53C226.258 169.479 226.211 172.66 226.211 176.075C226.211 184.782 226.499 192.158 227.081 198.192C227.663 204.227 228.443 208.816 229.434 211.949C230.419 215.087 231.493 216.653 232.656 216.653C233.468 216.653 234.223 216.014 234.92 214.736C235.617 213.463 236.225 211.251 236.749 208.119C237.273 204.986 237.645 200.69 237.881 195.232C238.083 190.46 238.152 184.574 238.089 177.576L238.053 174.514H254.429C254.659 183.571 254.429 191.727 253.732 198.983C253.035 206.238 251.814 212.42 250.074 217.527C248.334 222.635 246.07 226.527 243.283 229.194C240.495 231.871 237.184 233.201 233.353 233.201C227.893 233.201 223.45 230.734 220.028 225.799C216.601 220.865 214.075 214.101 212.451 205.51C210.826 196.924 210.014 187.055 210.014 175.907C210.014 169.286 210.333 163.047 210.973 157.185C211.607 151.323 212.598 146.042 213.934 141.338C215.27 136.639 216.894 132.605 218.812 129.237C220.725 125.869 222.989 123.259 225.604 121.4C228.218 119.545 231.148 118.613 234.402 118.613ZM233.699 134.973C233.002 134.973 232.305 135.44 231.608 136.367C230.911 137.299 230.246 138.777 229.606 140.809C228.967 142.842 228.391 145.487 227.867 148.735V148.729C227.715 149.657 227.579 150.636 227.448 151.668C229.015 151.684 230.576 151.689 232.133 151.689C234.574 151.689 236.55 151.668 238.053 151.621V149.426C238.053 146.179 237.849 143.507 237.446 141.417C237.037 139.326 236.487 137.734 235.79 136.628C235.093 135.523 234.396 134.973 233.699 134.973Z" fill="#155DFC"/>
<path d="M282.3 118.613C286.712 118.613 290.312 120.122 293.1 123.139C295.888 126.161 297.858 129.876 299.022 134.287C299.949 137.77 300.589 141.6 300.94 145.78C301.291 149.96 301.463 153.502 301.463 156.404H285.088V150.222C285.088 148.08 284.968 145.728 284.737 143.172C284.501 139.918 284.129 137.744 283.605 136.639C283.086 135.534 282.415 134.984 281.603 134.984C281.016 134.984 280.383 135.565 279.686 136.723C278.989 137.886 278.318 139.599 277.684 141.862C277.045 144.13 276.49 146.912 276.029 150.222C275.562 153.528 275.185 157.331 274.896 161.627C274.608 165.922 274.462 170.742 274.462 176.08C274.462 186.531 274.813 194.687 275.51 200.549C276.207 206.411 277.045 210.565 278.035 213.001C279.02 215.437 279.921 216.657 280.733 216.658C281.43 216.658 282.128 216.019 282.825 214.74C283.522 213.462 284.098 211.052 284.564 207.511C285.025 203.975 285.35 198.868 285.523 192.189C285.674 186.349 285.669 178.973 285.511 170.065L285.434 166.158H301.982C302.333 178.348 302.187 188.684 301.547 197.155C300.908 205.631 299.776 212.54 298.152 217.878C296.522 223.216 294.29 227.109 291.444 229.545C288.599 231.981 285.141 233.201 281.079 233.201C275.74 233.201 271.38 230.765 268.016 225.888C264.647 221.011 262.179 214.28 260.612 205.688C259.045 197.102 258.259 187.233 258.259 176.086C258.259 169.118 258.579 162.675 259.218 156.755C259.852 150.836 260.843 145.524 262.179 140.82C263.515 136.115 265.139 132.113 267.057 128.802C268.975 125.491 271.207 122.966 273.764 121.227C276.316 119.483 279.167 118.613 282.3 118.613Z" fill="#155DFC"/>
<path fill-rule="evenodd" clip-rule="evenodd" d="M329.859 118.613C332.411 118.613 334.764 119.221 336.912 120.441C339.055 121.662 340.942 123.464 342.571 125.843C344.201 128.221 345.537 131.18 346.58 134.721C347.628 138.263 348.262 142.297 348.498 146.823C348.728 151.464 348.907 155.12 349.022 157.792C349.138 160.464 349.195 163.487 349.195 166.85C346.407 166.614 343.011 166.499 339.003 166.499H327.769C325.751 166.499 323.77 166.509 321.816 166.53C321.716 169.479 321.669 172.66 321.669 176.075C321.669 184.782 321.957 192.158 322.539 198.192C323.12 204.227 323.901 208.816 324.891 211.949C325.876 215.086 326.951 216.653 328.114 216.653C328.926 216.653 329.681 216.014 330.378 214.736C331.075 213.463 331.682 211.251 332.206 208.119C332.73 204.986 333.103 200.69 333.339 195.232C333.54 190.46 333.609 184.574 333.546 177.576L333.511 174.514H349.886C350.117 183.571 349.886 191.727 349.189 198.983C348.492 206.238 347.271 212.42 345.532 217.527C343.792 222.635 341.529 226.527 338.741 229.194C335.954 231.871 332.642 233.201 328.811 233.201C323.351 233.201 318.908 230.734 315.486 225.799C312.059 220.865 309.533 214.101 307.909 205.51C306.284 196.924 305.472 187.055 305.472 175.907C305.472 169.286 305.792 163.047 306.431 157.185C307.065 151.323 308.055 146.042 309.392 141.338C310.728 136.639 312.352 132.605 314.27 129.237C316.182 125.869 318.446 123.259 321.061 121.4C323.676 119.545 326.605 118.613 329.859 118.613ZM329.152 134.973C328.455 134.973 327.758 135.44 327.061 136.367C326.364 137.299 325.699 138.777 325.059 140.809C324.42 142.842 323.844 145.487 323.32 148.735V148.729C323.168 149.657 323.031 150.636 322.9 151.668C324.467 151.684 326.029 151.689 327.585 151.689C330.027 151.689 332.002 151.668 333.506 151.621V149.426C333.506 146.179 333.301 143.507 332.898 141.417C332.489 139.326 331.939 137.734 331.242 136.628C330.545 135.523 329.849 134.973 329.152 134.973Z" fill="#155DFC"/>
<path fill-rule="evenodd" clip-rule="evenodd" d="M161.759 100.839C168.607 100.959 174.675 101.682 179.962 103.018C185.244 104.354 189.688 106.302 193.288 108.853C196.882 111.405 199.612 114.6 201.473 118.43C203.328 122.259 204.26 126.555 204.26 132.014C204.26 137.472 203.129 142.03 200.865 145.686C198.795 149.033 196.207 151.742 193.115 153.821C194.153 159.06 195.347 164.822 196.683 171.114C198.25 178.484 199.875 185.976 201.562 193.577V193.566C203.244 201.173 204.842 208.345 206.351 215.076C207.855 221.813 209.134 227.444 210.182 231.97L193.11 233.012C192.413 228.486 191.48 223.059 190.322 216.731C189.159 210.403 187.854 203.557 186.402 196.181C184.951 188.81 183.41 181.261 181.786 173.539C180.79 168.825 179.8 164.215 178.804 159.689C178.605 159.73 178.411 159.773 178.217 159.809V160.223C178.16 169.862 178.16 179.181 178.217 188.176C178.275 197.175 178.307 205.442 178.307 212.991C178.307 220.54 178.364 226.868 178.479 231.976H161.759C161.989 224.778 162.136 216.186 162.194 206.201C162.251 196.217 162.282 185.363 162.282 173.634C162.282 161.905 162.251 149.835 162.194 137.409C162.136 124.989 161.989 112.798 161.759 100.839ZM178.344 119.572C178.323 123.475 178.312 127.471 178.312 131.584C178.312 135.973 178.301 140.379 178.291 144.806C178.652 144.675 179.009 144.534 179.355 144.382C182.027 143.224 184.118 141.568 185.627 139.421V139.426C187.136 137.278 187.891 134.868 187.891 132.197C187.891 128.944 187.335 126.392 186.235 124.533C185.135 122.673 183.248 121.253 180.576 120.263C179.895 120.012 179.145 119.781 178.344 119.572Z" fill="#155DFC"/>
<path d="M372.183 101.368C372.067 104.621 371.979 109.236 371.921 115.213H371.9C371.885 116.585 371.874 118.011 371.868 119.478H379.131V134.454H371.895C371.9 134.921 371.905 135.377 371.905 135.848C371.963 143.627 371.995 151.841 371.995 160.49C371.995 169.139 372.026 177.788 372.083 186.436C372.141 195.091 372.198 203.331 372.256 211.168C372.314 219.005 372.346 225.946 372.346 231.981H355.624C355.739 225.946 355.798 218.978 355.798 211.084V186.18C355.798 177.468 355.766 168.762 355.708 160.055C355.65 151.349 355.593 143.135 355.535 135.413C355.53 135.089 355.53 134.774 355.53 134.454H351.27V119.478H355.457V114.952C355.457 109.032 355.399 104.5 355.284 101.368H372.183Z" fill="#155DFC"/>
<path d="M320.27 91.9697C322.476 94.5208 325.321 97.3394 328.806 100.414C332.29 103.489 335.602 106.129 338.736 108.335L333.857 115.648C332.348 114.837 330.289 113.62 327.674 111.991V111.997C325.06 110.373 322.418 108.66 319.746 106.858C317.074 105.061 314.867 103.463 313.127 102.07L320.27 91.9697Z" fill="#155DFC"/>
<path fill-rule="evenodd" clip-rule="evenodd" d="M293.713 58.5162C399.72 58.5162 459.77 83.6332 462.28 84.7038L462.275 84.6991C465.115 85.9144 466.876 88.392 466.876 91.1736V248.797C466.876 252.767 463.197 256 458.67 256H128.746C124.224 256 120.54 252.767 120.54 248.797V91.1784C120.54 88.3969 122.301 85.9139 125.141 84.7038C127.648 83.6291 187.704 58.5162 293.713 58.5162ZM293.708 72.9168C212.068 72.9168 158.3 88.4917 138.975 95.1866C137.749 95.6109 136.957 96.4963 136.957 97.434V239.105C136.957 240.457 138.556 241.594 140.448 241.594H446.974C448.866 241.594 450.464 240.451 450.464 239.105H450.458V97.434C450.458 96.4911 449.667 95.6109 448.441 95.1866C429.111 88.4917 375.348 72.9168 293.708 72.9168Z" fill="#155DFC"/>
<path d="M14.8559 95.7866L0 72.6434L4.96065 69.4609L19.8165 92.6041L14.8559 95.7866ZM11.2379 85.1315L8.50015 80.8666L20.4719 73.1861L23.2096 77.4511L11.2379 85.1315ZM5.14696 75.6428L2.2819 71.1795L15.6426 62.6079L18.5077 67.0713L5.14696 75.6428Z" fill="#155DFC"/>
<path d="M30.396 85.8466L27.295 56.4651L31.9668 54.0368L54.1734 73.4877L48.8043 76.2784L37.0547 65.6934C36.7219 65.3941 36.2999 65.0084 35.7886 64.5362C35.3005 64.052 34.7827 63.5389 34.2352 62.997C33.6876 62.4551 33.1698 61.942 32.6818 61.4578C32.1816 60.9503 31.7823 60.5232 31.4839 60.1765L32.4253 59.6872C32.5517 60.2709 32.673 60.9015 32.7891 61.5791C32.9165 62.2213 33.0442 62.8928 33.1725 63.5936C33.2887 64.2712 33.3872 64.9432 33.468 65.6096C33.5488 66.276 33.6353 66.9247 33.7273 67.5558L35.5908 83.1465L30.396 85.8466ZM32.194 78.4034L31.7271 73.3329L42.9186 67.5159L46.837 70.7924L32.194 78.4034Z" fill="#155DFC"/>
<path d="M57.0528 72.2245L55.0453 67.5712L59.2669 65.751L52.3887 49.8072L48.1671 51.6274L46.1596 46.9741L60.0152 41.0001L62.0227 45.6534L57.8011 47.4736L64.6793 63.4175L68.9009 61.5973L70.9084 66.2506L57.0528 72.2245Z" fill="#155DFC"/>
<path d="M76.913 63.8988L67.5792 38.0317L79.0379 33.8994C80.6396 33.3217 82.2269 33.1669 83.7996 33.435C85.3634 33.6784 86.7372 34.2827 87.9209 35.2479C89.1293 36.2041 90.018 37.4706 90.5869 39.0473C91.1469 40.5993 91.2761 42.1536 90.9744 43.7101C90.6885 45.2331 90.0259 46.5996 88.9865 47.8097C87.9471 49.0198 86.6266 49.9136 85.0248 50.4913L78.9259 52.6908L82.2727 61.966L76.913 63.8988ZM91.5875 58.6067L80.7944 49.3024L86.1535 46.3257L98.0325 56.3242L91.5875 58.6067ZM77.2991 48.1825L83.1394 46.0763C83.8047 45.8364 84.3305 45.4797 84.7166 45.0064C85.1186 44.4995 85.3573 43.9262 85.4328 43.2864C85.4994 42.6221 85.4082 41.945 85.1593 41.2552C84.8927 40.5161 84.5014 39.9334 83.9854 39.5069C83.4695 39.0805 82.8502 38.8305 82.1275 38.7571C81.3959 38.659 80.6234 38.7566 79.8102 39.0498L74.6723 40.9027L77.2991 48.1825Z" fill="#155DFC"/>
<path d="M102.854 54.7627L95.0276 28.4006L112.846 23.1136L114.322 28.0847L102.041 31.7286L106.916 48.1484L119.46 44.4262L120.936 49.3973L102.854 54.7627ZM102.215 42.9458L100.784 38.1254L114.157 34.1572L115.588 38.9777L102.215 42.9458Z" fill="#155DFC"/>
<path d="M138.494 44.9063L132.633 18.0392L143.652 15.6368C145.623 15.2071 147.474 15.1519 149.206 15.4712C150.958 15.7594 152.541 16.3792 153.955 17.3307C155.389 18.251 156.592 19.4631 157.564 20.9668C158.535 22.4704 159.239 24.2202 159.674 26.2161C160.104 28.1863 160.193 30.07 159.942 31.8672C159.685 33.6387 159.111 35.2514 158.222 36.7051C157.327 38.1332 156.146 39.3557 154.678 40.3726C153.205 41.3638 151.484 42.0743 149.513 42.504L138.494 44.9063ZM143.34 39.4672L142.508 38.6032L148.19 37.3643C149.342 37.1132 150.337 36.6953 151.175 36.1106C152.007 35.5003 152.667 34.78 153.157 33.9496C153.666 33.088 153.975 32.1092 154.084 31.0132C154.194 29.9171 154.112 28.7422 153.838 27.4884C153.565 26.2346 153.153 25.145 152.602 24.2196C152.046 23.2686 151.358 22.5075 150.536 21.9361C149.74 21.3592 148.839 20.9792 147.834 20.7963C146.823 20.5878 145.742 20.6091 144.59 20.8602L138.793 22.1241L139.321 21.0439L143.34 39.4672Z" fill="#155DFC"/>
<path d="M167.842 38.6762L163.223 11.5679L181.546 8.44821L182.417 13.5601L169.789 15.7102L172.665 32.5948L185.565 30.3985L186.435 35.5104L167.842 38.6762ZM168.62 26.8678L167.776 21.9108L181.527 19.5694L182.372 24.5264L168.62 26.8678Z" fill="#155DFC"/>
<path d="M204.389 33.012L201.349 5.68174L213.221 4.36194C215.044 4.15933 216.61 4.26187 217.921 4.66955C219.254 5.04831 220.303 5.70907 221.067 6.65183C221.831 7.5946 222.291 8.76876 222.447 10.1743C222.621 11.736 222.375 13.0809 221.71 14.2089C221.045 15.3369 220.005 16.1771 218.59 16.7296L218.464 15.9531C219.72 16.1034 220.826 16.4547 221.784 17.007C222.768 17.5564 223.56 18.2852 224.162 19.1932C224.764 20.1013 225.133 21.167 225.269 22.3904C225.419 23.7439 225.331 24.9658 225.005 26.0562C224.675 27.1205 224.118 28.0388 223.334 28.811C222.55 29.5833 221.593 30.2168 220.462 30.7114C219.354 31.1771 218.084 31.4896 216.652 31.6488L204.389 33.012ZM209.448 27.3112L215.853 26.5992C216.686 26.5066 217.376 26.3113 217.923 26.0134C218.492 25.6865 218.905 25.2454 219.159 24.6901C219.414 24.1348 219.502 23.5058 219.424 22.803C219.348 22.1262 219.116 21.5724 218.725 21.1415C218.334 20.7106 217.814 20.4128 217.163 20.248C216.535 20.0543 215.791 20.0052 214.932 20.1007L208.723 20.791L209.448 27.3112ZM208.206 16.1448L213.752 15.5284C214.455 15.4502 215.052 15.252 215.544 14.9339C216.035 14.6157 216.387 14.2209 216.598 13.7495C216.835 13.2751 216.921 12.7386 216.854 12.14C216.747 11.1769 216.352 10.4698 215.669 10.0187C214.986 9.5676 214.007 9.41295 212.731 9.55477L207.537 10.1322L208.206 16.1448Z" fill="#155DFC"/>
<path d="M243.736 29.699C241.697 29.8394 239.804 29.6154 238.057 29.027C236.309 28.4387 234.752 27.5615 233.385 26.3956C232.042 25.2018 230.972 23.7662 230.173 22.0886C229.373 20.3849 228.903 18.514 228.762 16.4761C228.62 14.4121 228.829 12.4944 229.39 10.7232C229.95 8.952 230.815 7.39613 231.983 6.05558C233.175 4.68712 234.596 3.59164 236.247 2.76916C237.897 1.94668 239.728 1.46611 241.74 1.32746C243.779 1.18701 245.659 1.41188 247.38 2.00207C249.127 2.59046 250.672 3.48156 252.015 4.67536C253.384 5.86736 254.467 7.30215 255.266 8.97973C256.064 10.6573 256.534 12.5151 256.674 14.553C256.815 16.5909 256.605 18.4955 256.044 20.2667C255.483 22.0379 254.607 23.6078 253.415 24.9762C252.248 26.3429 250.84 27.4375 249.19 28.26C247.566 29.0806 245.748 29.5603 243.736 29.699ZM243.313 24.1366C244.489 24.0555 245.546 23.7727 246.484 23.288C247.42 22.7772 248.215 22.1187 248.869 21.3124C249.52 20.4799 250.006 19.5277 250.326 18.4556C250.672 17.3817 250.802 16.2177 250.715 14.9635C250.629 13.7094 250.341 12.5742 249.85 11.558C249.386 10.5399 248.775 9.67631 248.018 8.96724C247.258 8.23204 246.38 7.68874 245.384 7.33733C244.387 6.95979 243.3 6.81153 242.124 6.89256C240.974 6.9718 239.931 7.2668 238.994 7.77759C238.056 8.26225 237.248 8.9217 236.571 9.75594C235.891 10.564 235.391 11.5042 235.071 12.5763C234.778 13.6466 234.674 14.8088 234.76 16.0629C234.847 17.317 235.109 18.454 235.547 19.4739C236.011 20.4919 236.636 21.3677 237.422 22.1011C238.206 22.8083 239.096 23.3507 240.094 23.7283C241.09 24.0797 242.163 24.2158 243.313 24.1366Z" fill="#155DFC"/>
<path d="M262.952 28.1375L262.26 0.647536L267.524 0.515086L283.243 20.6715L282.143 20.6992C282.018 19.8902 281.907 19.1071 281.809 18.3498C281.711 17.5664 281.612 16.7829 281.514 15.9995C281.441 15.1892 281.368 14.3658 281.294 13.5293C281.246 12.666 281.198 11.7634 281.148 10.8216C281.097 9.85353 281.058 8.80663 281.029 7.68085L280.84 0.180006L286.615 0.0347065L287.307 27.5247L281.965 27.6591L265.926 7.31425L267.42 7.31596C267.585 8.67407 267.719 9.83649 267.822 10.8032C267.95 11.7431 268.05 12.5658 268.12 13.2714C268.216 13.9763 268.284 14.5902 268.324 15.1132C268.363 15.6361 268.389 16.1332 268.4 16.6045C268.438 17.0751 268.464 17.5722 268.477 18.0958L268.726 27.9922L262.952 28.1375Z" fill="#155DFC"/>
<path d="M294.445 27.4948L294.905 0L300.17 0.0880501L315.031 20.8849L313.931 20.8665C313.84 20.053 313.761 19.2659 313.696 18.5052C313.63 17.7183 313.565 16.9315 313.499 16.1446C313.46 15.3319 313.422 14.5062 313.383 13.6674C313.372 12.8029 313.361 11.899 313.35 10.9559C313.34 9.98659 313.345 8.93895 313.364 7.81297L313.489 0.310804L319.265 0.407396L318.805 27.9022L313.461 27.8129L298.289 6.81436L299.781 6.87861C299.889 8.24244 299.975 9.40945 300.037 10.3796C300.126 11.3241 300.191 12.1502 300.231 12.8581C300.298 13.5664 300.34 14.1827 300.358 14.7068C300.375 15.231 300.38 15.7287 300.372 16.2001C300.39 16.6718 300.395 17.1696 300.386 17.6933L300.221 27.5914L294.445 27.4948Z" fill="#155DFC"/>
<path d="M325.938 28.1587L327.453 0.701793L346.012 1.72528L345.726 6.90287L332.935 6.19747L331.991 23.2992L345.057 24.0198L344.771 29.1974L325.938 28.1587ZM329.319 16.8175L329.596 11.7968L343.524 12.565L343.247 17.5857L329.319 16.8175Z" fill="#155DFC"/>
<path d="M359.681 30.8501C357.985 30.697 356.452 30.3482 355.081 29.8036C353.736 29.2615 352.552 28.5366 351.529 27.6291C350.532 26.724 349.655 25.6587 348.898 24.4333L352.955 20.5791C354.073 22.4682 355.229 23.7953 356.422 24.5604C357.644 25.3018 358.999 25.7397 360.486 25.8739C361.295 25.947 362.023 25.8944 362.67 25.7162C363.344 25.5403 363.881 25.2732 364.281 24.915C364.684 24.5306 364.912 24.0515 364.964 23.4777C365.001 23.0604 364.944 22.6739 364.792 22.3183C364.642 21.9367 364.41 21.6001 364.094 21.3087C363.781 20.9911 363.399 20.7068 362.948 20.4558C362.5 20.1786 361.996 19.9359 361.436 19.7276C360.878 19.4932 360.265 19.2932 359.596 19.1276C358.166 18.6566 356.924 18.1369 355.87 17.5685C354.819 16.974 353.96 16.2916 353.293 15.5214C352.629 14.7251 352.155 13.8541 351.872 12.9082C351.616 11.9647 351.539 10.9191 351.643 9.7714C351.749 8.59766 352.108 7.53877 352.719 6.59472C353.333 5.62459 354.129 4.81559 355.108 4.1677C356.113 3.52218 357.234 3.05797 358.469 2.77507C359.731 2.49454 361.04 2.41551 362.397 2.538C364.066 2.68875 365.511 3.00324 366.73 3.48147C367.95 3.9597 368.983 4.6052 369.83 5.41796C370.706 6.20701 371.411 7.13841 371.945 8.21219L367.902 11.476C367.42 10.6962 366.875 10.0291 366.268 9.4746C365.687 8.92249 365.028 8.49491 364.293 8.19185C363.586 7.86506 362.841 7.66634 362.058 7.59567C361.197 7.51794 360.443 7.56818 359.796 7.7464C359.151 7.89853 358.625 8.17982 358.22 8.59025C357.843 8.97696 357.629 9.45723 357.577 10.0311C357.535 10.5005 357.614 10.9285 357.816 11.3148C358.018 11.7012 358.328 12.0579 358.745 12.3848C359.165 12.6857 359.679 12.9687 360.286 13.2339C360.894 13.4991 361.569 13.7441 362.311 13.9689C363.72 14.3854 364.977 14.8802 366.083 15.4533C367.189 16.0265 368.115 16.6886 368.863 17.4398C369.639 18.1673 370.207 19.0075 370.568 19.9604C370.932 20.8873 371.063 21.9115 370.961 23.0331C370.794 24.885 370.208 26.423 369.203 27.647C368.198 28.8711 366.881 29.7646 365.252 30.3275C363.626 30.8643 361.769 31.0385 359.681 30.8501Z" fill="#155DFC"/>
<path d="M387.464 33.4887L391.484 6.28531L403.535 8.06527C405.219 8.31409 406.691 8.92855 407.95 9.90867C409.212 10.8629 410.136 12.0451 410.722 13.4553C411.334 14.8694 411.518 16.4055 411.273 18.0636C411.031 19.6958 410.409 21.1262 409.407 22.3547C408.434 23.5612 407.204 24.4516 405.715 25.026C404.227 25.6003 402.641 25.7631 400.956 25.5143L394.542 24.5669L393.1 34.3213L387.464 33.4887ZM402.896 35.7682L397.792 22.4658L403.922 22.3785L409.655 36.8061L402.896 35.7682ZM395.243 19.8257L401.385 20.7329C402.084 20.8363 402.716 20.7708 403.281 20.5365C403.875 20.28 404.356 19.8879 404.726 19.36C405.099 18.8063 405.339 18.1667 405.446 17.4412C405.561 16.664 405.492 15.9655 405.239 15.3458C404.987 14.726 404.559 14.2129 403.957 13.8063C403.359 13.3738 402.633 13.0944 401.777 12.968L396.374 12.1699L395.243 19.8257Z" fill="#155DFC"/>
<path d="M414.655 37.6564L419.812 10.6453L438.069 14.1288L437.096 19.2223L424.513 16.8214L421.301 33.6455L434.155 36.0979L433.182 41.1914L414.655 37.6564ZM419.515 26.8658L420.458 21.9267L434.161 24.5411L433.218 29.4803L419.515 26.8658Z" fill="#155DFC"/>
<path d="M450.767 45.6557C448.804 45.1898 447.073 44.4289 445.574 43.373C444.106 42.2977 442.906 41.0033 441.973 39.4898C441.072 37.9568 440.49 36.2708 440.226 34.4317C439.969 32.5672 440.08 30.6285 440.558 28.6155C441.024 26.6535 441.798 24.9261 442.88 23.4333C443.967 21.915 445.281 20.6925 446.82 19.766C448.366 18.814 450.062 18.1937 451.907 17.9051C453.753 17.6166 455.657 17.7053 457.619 18.1713C458.894 18.4738 460.1 18.9487 461.239 19.5959C462.409 20.2237 463.425 20.9899 464.287 21.8944C465.175 22.805 465.879 23.8067 466.401 24.8995L461.863 28.0212C461.422 27.2705 460.921 26.5999 460.362 26.0094C459.808 25.3934 459.189 24.883 458.504 24.4781C457.851 24.0539 457.116 23.7449 456.301 23.5513C455.205 23.2911 454.124 23.2498 453.059 23.4275C452.019 23.6113 451.054 23.988 450.165 24.5574C449.282 25.1014 448.5 25.8444 447.818 26.7862C447.168 27.7086 446.695 28.794 446.398 30.0426C446.096 31.3166 446.024 32.5244 446.184 33.6659C446.35 34.7819 446.714 35.7972 447.278 36.7116C447.847 37.6006 448.594 38.3699 449.516 39.0197C450.47 39.65 451.572 40.1134 452.821 40.41C453.636 40.6036 454.454 40.6765 455.273 40.6288C456.092 40.581 456.869 40.4289 457.603 40.1725C458.362 39.9222 459.06 39.59 459.697 39.1759L461.464 44.3195C460.663 44.8561 459.674 45.2807 458.496 45.5932C457.343 45.9117 456.09 46.0853 454.737 46.1139C453.39 46.1171 452.067 45.9644 450.767 45.6557Z" fill="#155DFC"/>
<path d="M465.431 48.9164L473.11 22.5111L490.957 27.6985L489.509 32.6778L477.209 29.1025L472.426 45.5493L484.991 49.2013L483.543 54.1806L465.431 48.9164ZM471.286 38.6316L472.691 33.8032L486.086 37.6965L484.681 42.5249L471.286 38.6316Z" fill="#155DFC"/>
<path d="M494.734 57.9615L502.084 37.0179L494.52 34.3647L496.276 29.3604L517.189 36.6957L515.432 41.7L507.646 38.9687L500.295 59.9124L494.734 57.9615Z" fill="#155DFC"/>
<path d="M518.997 67.0905L527.646 46.6486L520.263 43.5267L522.329 38.6423L542.741 47.2735L540.674 52.1578L533.074 48.9441L524.425 69.386L518.997 67.0905Z" fill="#155DFC"/>
<path d="M536.393 74.7316L548.94 50.2603L565.48 58.736L563.114 63.3506L551.714 57.509L543.899 72.7511L555.544 78.7181L553.178 83.3327L536.393 74.7316ZM544.092 65.743L546.387 61.2682L558.801 67.6294L556.506 72.1042L544.092 65.743Z" fill="#155DFC"/>
<path d="M565.75 91.4834C564.311 90.5732 563.106 89.5629 562.135 88.4526C561.186 87.3563 560.463 86.1711 559.968 84.8969C559.494 83.6367 559.201 82.2887 559.086 80.8528L564.456 79.2753C564.588 81.4663 565.01 83.1746 565.723 84.4C566.471 85.6174 567.477 86.6251 568.738 87.4233C569.425 87.8574 570.096 88.1429 570.754 88.2798C571.433 88.4307 572.033 88.4382 572.553 88.3023C573.087 88.1443 573.508 87.8218 573.816 87.3349C574.041 86.9808 574.166 86.6109 574.193 86.2252C574.234 85.8173 574.181 85.4117 574.034 85.0084C573.9 84.5829 573.69 84.1556 573.403 83.7265C573.131 83.2752 572.793 82.8292 572.39 82.3883C572.001 81.9253 571.547 81.4675 571.028 81.0149C569.97 79.943 569.102 78.9138 568.425 77.9273C567.761 76.9187 567.308 75.9195 567.067 74.9299C566.839 73.9182 566.816 72.927 566.996 71.9563C567.198 70.9997 567.608 70.0345 568.224 69.0607C568.854 68.0648 569.657 67.2865 570.632 66.7255C571.621 66.1425 572.699 65.7862 573.866 65.6567C575.055 65.5411 576.264 65.6395 577.493 65.9517C578.743 66.2779 579.944 66.8051 581.095 67.5332C582.512 68.4295 583.654 69.3686 584.52 70.3506C585.386 71.3326 586.011 72.3785 586.394 73.4883C586.812 74.5899 587.014 75.7403 586.999 76.9395L581.912 77.9981C581.839 77.0844 581.659 76.2422 581.372 75.4716C581.107 74.7151 580.716 74.0341 580.2 73.4289C579.72 72.8155 579.148 72.2987 578.484 71.8786C577.754 71.4165 577.06 71.117 576.402 70.9801C575.759 70.821 575.163 70.8316 574.615 71.0118C574.103 71.1838 573.693 71.5133 573.385 72.0002C573.133 72.3985 573.009 72.8156 573.012 73.2515C573.015 73.6874 573.128 74.146 573.35 74.6275C573.586 75.0869 573.914 75.5732 574.333 76.0863C574.752 76.5994 575.241 77.1254 575.799 77.6643C576.862 78.678 577.755 79.692 578.477 80.7065C579.199 81.721 579.721 82.7331 580.043 83.7426C580.401 84.744 580.523 85.751 580.409 86.7636C580.309 87.7541 579.958 88.7252 579.356 89.6768C578.361 91.2481 577.138 92.349 575.684 92.9794C574.231 93.6098 572.652 93.8037 570.945 93.561C569.253 93.2962 567.521 92.6037 565.75 91.4834Z" fill="#155DFC"/>
</svg>
