<svg preserveAspectRatio="none" width="100%" height="100%" overflow="visible" style="display: block;" viewBox="0 0 40 40" fill="none" xmlns="http://www.w3.org/2000/svg">
<g id="SVG" clip-path="url(#clip0_0_41)">
<path id="Vector" d="M39.4531 13.6562L36.3594 10.5625C35.625 9.82812 34.4375 9.82812 33.7109 10.5625L15 29.2734L6.29688 20.5625C5.5625 19.8281 4.375 19.8281 3.64844 20.5625L0.546875 23.6641C-0.1875 24.3984 -0.1875 25.5859 0.546875 26.3203L13.6719 39.4531C14.4063 40.1875 15.5937 40.1875 16.3203 39.4531L39.4453 16.3125C40.1797 15.5703 40.1797 14.3828 39.4531 13.6562ZM14.1172 21.9375C14.6016 22.4297 15.3984 22.4297 15.8828 21.9375L32.1328 5.67187C32.6172 5.17969 32.6172 4.39063 32.1328 3.90625L28.6016 0.367188C28.1172 -0.125 27.3203 -0.125 26.8359 0.367188L15 12.2031L10.6719 7.86719C10.1875 7.375 9.39063 7.375 8.90625 7.86719L5.36719 11.4062C4.88281 11.8984 4.88281 12.6875 5.36719 13.1719L14.1172 21.9375Z" fill="var(--fill-0, white)"/>
</g>
<defs>
<clipPath id="clip0_0_41">
<rect width="40" height="40" fill="white"/>
</clipPath>
</defs>
</svg>
