<svg preserveAspectRatio="none" width="100%" height="100%" overflow="visible" style="display: block;" viewBox="0 0 40 40" fill="none" xmlns="http://www.w3.org/2000/svg">
<g id="SVG" clip-path="url(#clip0_0_70)">
<path id="Vector" d="M38.7692 20C38.7692 9.63404 30.366 1.23077 20 1.23077C9.63404 1.23077 1.23077 9.63404 1.23077 20C1.23077 30.366 9.63404 38.7692 20 38.7692C30.366 38.7692 38.7692 30.366 38.7692 20Z" stroke="var(--stroke-0, #060A18)" stroke-width="2.46154"/>
<path id="Vector_2" d="M16.0366 30.154H23.9634C24.6743 30.1539 25.3752 29.9859 26.0089 29.6636C26.6426 29.3414 27.1913 28.8739 27.61 28.2994C28.0288 27.7249 28.306 27.0596 28.4188 26.3577C28.5317 25.6557 28.4772 24.937 28.2596 24.2602L26.3349 18.2739C25.9694 17.1369 25.2526 16.1452 24.2874 15.4417C23.3223 14.7382 22.1589 14.3591 20.9646 14.359H19.0354C17.841 14.3591 16.6776 14.7382 15.7125 15.4417C14.7474 16.1452 14.0305 17.1369 13.6651 18.2739L11.7404 24.2602C11.5228 24.937 11.4682 25.6557 11.5811 26.3577C11.694 27.0596 11.9711 27.7249 12.3899 28.2994C12.8087 28.8739 13.3573 29.3414 13.991 29.6636C14.6247 29.9859 15.3256 30.1539 16.0366 30.154ZM23.3846 9.84621C22.6325 12.8548 21.5042 14.359 20 14.359C18.4957 14.359 17.3675 12.8548 16.6153 9.84621H23.3846Z" fill="var(--fill-0, #060A18)"/>
<path id="Vector_3" d="M20 22.2565H16.6153M16.0366 30.154H23.9634C24.6743 30.1539 25.3752 29.9859 26.0089 29.6636C26.6426 29.3414 27.1913 28.8739 27.61 28.2994C28.0288 27.7249 28.306 27.0596 28.4188 26.3577C28.5317 25.6557 28.4772 24.937 28.2596 24.2602L26.3349 18.2739C25.9694 17.1369 25.2526 16.1452 24.2874 15.4417C23.3223 14.7382 22.1589 14.3591 20.9646 14.359H19.0354C17.841 14.3591 16.6776 14.7382 15.7125 15.4417C14.7474 16.1452 14.0305 17.1369 13.6651 18.2739L11.7404 24.2602C11.5228 24.937 11.4682 25.6557 11.5811 26.3577C11.694 27.0596 11.9711 27.7249 12.3899 28.2994C12.8087 28.8739 13.3573 29.3414 13.991 29.6636C14.6247 29.9859 15.3256 30.1539 16.0366 30.154ZM23.3846 9.84621C22.6325 12.8548 21.5042 14.359 20 14.359C18.4957 14.359 17.3675 12.8548 16.6153 9.84621H23.3846Z" stroke="var(--stroke-0, #060A18)" stroke-width="1.23077" stroke-linecap="round" stroke-linejoin="round"/>
<path id="Vector_4" d="M22.2566 19.0657C21.746 18.885 21.1995 18.8294 20.663 18.9036C20.1265 18.9778 19.6157 19.1798 19.1734 19.4924C18.7311 19.805 18.3703 20.2191 18.1214 20.7001C17.8723 21.181 17.7423 21.7147 17.7423 22.2563C17.7423 22.7979 17.8723 23.3316 18.1214 23.8126C18.3703 24.2935 18.7311 24.7077 19.1734 25.0202C19.6157 25.3329 20.1265 25.5348 20.663 25.609C21.1995 25.6833 21.746 25.6276 22.2566 25.4469" fill="var(--fill-0, #060A18)"/>
<path id="Vector_5" d="M22.2566 19.0657C21.746 18.885 21.1995 18.8294 20.663 18.9036C20.1265 18.9778 19.6157 19.1798 19.1734 19.4924C18.7311 19.805 18.3703 20.2191 18.1214 20.7001C17.8723 21.181 17.7423 21.7147 17.7423 22.2563C17.7423 22.7979 17.8723 23.3316 18.1214 23.8126C18.3703 24.2935 18.7311 24.7077 19.1734 25.0202C19.6157 25.3329 20.1265 25.5348 20.663 25.609C21.1995 25.6833 21.746 25.6276 22.2566 25.4469" stroke="var(--stroke-0, #060A18)" stroke-width="1.23077" stroke-linecap="round" stroke-linejoin="round"/>
</g>
<defs>
<clipPath id="clip0_0_70">
<rect width="40" height="40" fill="white"/>
</clipPath>
</defs>
</svg>
