<svg preserveAspectRatio="none" width="100%" height="100%" overflow="visible" style="display: block;" viewBox="0 0 40 40" fill="none" xmlns="http://www.w3.org/2000/svg">
<g id="SVG">
<path id="Vector" d="M31 27.5H32.75C33.25 27.5 33.75 27 33.75 26.5V8.5C33.75 8 33.25 7.5 32.75 7.5H31C30.5 7.5 30 8 30 8.5V26.5C30 27 30.5 27.5 31 27.5ZM16 27.5H17.75C18.25 27.5 18.75 27 18.75 26.5V11C18.75 10.5 18.25 10 17.75 10H16C15.5 10 15 10.5 15 11V26.5C15 27 15.5 27.5 16 27.5ZM23.5 27.5H25.25C25.75 27.5 26.25 27 26.25 26.5V16C26.25 15.5 25.75 15 25.25 15H23.5C23 15 22.5 15.5 22.5 16V26.5C22.5 27 23 27.5 23.5 27.5ZM38.75 31.25H3.75V6.25C3.75 5.55937 3.19063 5 2.5 5H1.25C0.559375 5 0 5.55937 0 6.25V32.5C0 33.8805 1.11953 35 2.5 35H38.75C39.4406 35 40 34.4406 40 33.75V32.5C40 31.8094 39.4406 31.25 38.75 31.25ZM8.5 27.5H10.25C10.75 27.5 11.25 27 11.25 26.5V21C11.25 20.5 10.75 20 10.25 20H8.5C8 20 7.5 20.5 7.5 21V26.5C7.5 27 8 27.5 8.5 27.5Z" fill="var(--fill-0, white)"/>
</g>
</svg>
