<svg preserveAspectRatio="none" width="100%" height="100%" overflow="visible" style="display: block;" viewBox="0 0 40 40" fill="none" xmlns="http://www.w3.org/2000/svg">
<g id="SVG" clip-path="url(#clip0_0_64)">
<path id="Vector" d="M38.7692 20C38.7692 9.63404 30.366 1.23077 20 1.23077C9.63404 1.23077 1.23077 9.63404 1.23077 20C1.23077 30.366 9.63404 38.7692 20 38.7692C30.366 38.7692 38.7692 30.366 38.7692 20Z" stroke="var(--stroke-0, #060A18)" stroke-width="2.46154"/>
<path id="Vector_2" d="M12.0252 22.0913C15.9319 22.4022 19.0539 25.5329 19.3594 29.512C17.474 29.359 15.6944 28.5344 14.3455 27.1719C12.9946 25.8071 12.1755 24.0036 12.0252 22.0913ZM27.9742 22.0913C27.8239 24.0036 27.0054 25.8071 25.6545 27.1719C24.3055 28.5345 22.5256 29.3591 20.64 29.512C20.9433 25.5308 24.0459 22.4007 27.9742 22.0913ZM20 10.4615C20.4695 10.4615 20.9209 10.6501 21.2548 10.9874C21.5889 11.3249 21.7777 11.7839 21.7777 12.2638V13.6725L22.7608 12.9411C23.0118 12.7543 23.3499 12.6377 23.7332 12.6376C24.2026 12.6376 24.6541 12.8257 24.988 13.1628C25.322 13.5003 25.5108 13.9594 25.5108 14.4393C25.5108 15.1503 25.0909 15.7721 24.491 16.0607L23.3377 16.6154L24.491 17.1701C25.0922 17.4593 25.5108 18.0722 25.5108 18.7914C25.5108 19.2713 25.322 19.7305 24.988 20.0679C24.6541 20.4051 24.2026 20.5932 23.7332 20.5932C23.358 20.5931 23.0137 20.4716 22.7518 20.2836L21.7777 19.5841V20.967C21.7777 21.4469 21.5889 21.9059 21.2548 22.2434C20.9209 22.5807 20.4695 22.7692 20 22.7692C19.5305 22.7692 19.0791 22.5807 18.7452 22.2434C18.4111 21.9059 18.2223 21.4469 18.2223 20.967V19.5841L17.2482 20.2836C16.9863 20.4716 16.642 20.5931 16.2668 20.5932C15.7974 20.5932 15.3459 20.4051 15.012 20.0679C14.678 19.7305 14.4892 19.2713 14.4892 18.7914C14.4892 18.0722 14.9078 17.4593 15.509 17.1701L16.6623 16.6154L15.509 16.0607C14.9091 15.7721 14.4892 15.1503 14.4892 14.4393C14.4892 13.9594 14.678 13.5003 15.012 13.1628C15.3459 12.8257 15.7974 12.6376 16.2668 12.6376C16.6501 12.6377 16.9882 12.7543 17.2392 12.9411L18.2223 13.6725V12.2638C18.2223 11.7839 18.4111 11.3249 18.7452 10.9874C19.0791 10.6501 19.5305 10.4615 20 10.4615ZM20 13.5823C19.2001 13.5823 18.4339 13.9035 17.8702 14.473C17.3068 15.0422 16.9916 15.813 16.9916 16.6154C16.9916 17.4177 17.3068 18.1886 17.8702 18.7578C18.4339 19.3273 19.2001 19.6484 20 19.6484C20.7999 19.6484 21.5661 19.3273 22.1298 18.7578C22.6932 18.1886 23.0084 17.4177 23.0084 16.6154C23.0084 15.813 22.6932 15.0422 22.1298 14.473C21.5661 13.9035 20.7999 13.5823 20 13.5823Z" fill="var(--fill-0, #060A18)" stroke="var(--stroke-0, #060A18)" stroke-width="1.23077"/>
</g>
<defs>
<clipPath id="clip0_0_64">
<rect width="40" height="40" fill="white"/>
</clipPath>
</defs>
</svg>
