<svg preserveAspectRatio="none" width="100%" height="100%" overflow="visible" style="display: block;" viewBox="0 0 40 40" fill="none" xmlns="http://www.w3.org/2000/svg">
<g id="SVG" clip-path="url(#clip0_0_61)">
<path id="Vector" d="M38.7692 20C38.7692 9.63404 30.366 1.23077 20 1.23077C9.63404 1.23077 1.23077 9.63404 1.23077 20C1.23077 30.366 9.63404 38.7692 20 38.7692C30.366 38.7692 38.7692 30.366 38.7692 20Z" stroke="var(--stroke-0, #060A18)" stroke-width="2.46154"/>
<path id="Vector_2" fill-rule="evenodd" clip-rule="evenodd" d="M16.5033 9.84615C15.9776 9.84615 15.5514 10.2724 15.5514 10.7981C15.5514 11.3238 15.9776 11.75 16.5033 11.75H22.8495C23.3752 11.75 23.8014 11.3238 23.8014 10.7981C23.8014 10.2724 23.3752 9.84615 22.8495 9.84615H16.5033ZM12.6956 21.2692C12.6956 17.4138 15.821 14.2885 19.6764 14.2885C23.5318 14.2885 26.6572 17.4138 26.6572 21.2692C26.6572 25.1246 23.5318 28.25 19.6764 28.25C15.821 28.25 12.6956 25.1246 12.6956 21.2692ZM19.6764 12.3846C14.7695 12.3846 10.7918 16.3624 10.7918 21.2692C10.7918 26.1761 14.7695 30.1538 19.6764 30.1538C24.5832 30.1538 28.561 26.1761 28.561 21.2692C28.561 16.3624 24.5832 12.3846 19.6764 12.3846ZM19.6637 16.5096C20.1894 16.5096 20.6156 16.9358 20.6156 17.4615V21.2692C20.6156 21.795 20.1894 22.2212 19.6637 22.2212C19.138 22.2212 18.7118 21.795 18.7118 21.2692V17.4615C18.7118 16.9358 19.138 16.5096 19.6637 16.5096ZM27.0257 12.0161C26.6539 11.6444 26.0512 11.6444 25.6794 12.0161C25.3077 12.3879 25.3077 12.9906 25.6794 13.3623L27.5833 15.2662C27.955 15.6379 28.5578 15.6379 28.9295 15.2662C29.3012 14.8944 29.3012 14.2917 28.9295 13.9199L27.0257 12.0161Z" fill="var(--fill-0, #060A18)"/>
</g>
<defs>
<clipPath id="clip0_0_61">
<rect width="40" height="40" fill="white"/>
</clipPath>
</defs>
</svg>
