<svg preserveAspectRatio="none" width="100%" height="100%" overflow="visible" style="display: block;" viewBox="0 0 30 30" fill="none" xmlns="http://www.w3.org/2000/svg">
<g id="SVG" clip-path="url(#clip0_0_58)">
<path id="Vector" d="M29.1346 15C29.1346 7.19367 22.8063 0.865385 15 0.865385C7.19367 0.865385 0.865385 7.19367 0.865385 15C0.865385 22.8063 7.19367 29.1346 15 29.1346C22.8063 29.1346 29.1346 22.8063 29.1346 15Z" stroke="var(--stroke-0, #060A18)" stroke-width="1.73077"/>
<path id="Vector_2" d="M12.0317 25.9615C12.1502 25.4031 12.3109 24.6838 12.514 23.8038C12.7171 22.9069 12.9371 21.9254 13.174 20.8592C13.4278 19.7762 13.6733 18.6762 13.9101 17.5592C14.1471 16.4423 14.3671 15.3762 14.5701 14.3608C14.7732 13.3285 14.934 12.4062 15.0524 11.5938C15.1878 10.7646 15.2555 10.13 15.2555 9.69C15.2555 9.18231 15.0863 8.92846 14.7478 8.92846C14.5955 8.92846 14.4348 9.0131 14.2655 9.18231C14.1132 9.33462 13.944 9.56308 13.7578 9.86769L12.0824 8.16692C12.4886 7.71 12.9117 7.3631 13.3517 7.12615C13.8086 6.87231 14.3332 6.74538 14.9255 6.74538C15.8056 6.74538 16.474 6.99075 16.9309 7.48154C17.3878 7.97233 17.6163 8.70848 17.6163 9.69C17.6163 10.1808 17.5486 10.8492 17.4132 11.6954C17.2948 12.5416 17.134 13.4808 16.9309 14.5131C16.7278 15.5454 16.4994 16.6115 16.2455 17.7115C16.0086 18.8116 15.7632 19.8777 15.5094 20.91C15.2725 21.9254 15.0524 22.8392 14.8494 23.6515C14.6632 24.4638 14.5109 25.0985 14.3924 25.5554L13.2501 23.8546C13.7409 23.8546 14.3671 23.8546 15.1286 23.8546C15.9071 23.8377 16.7109 23.8123 17.5401 23.7785V25.9615C16.8294 25.9446 15.9663 25.9362 14.9509 25.9362C13.9525 25.9192 12.9794 25.9277 12.0317 25.9615Z" fill="var(--fill-0, #060A18)"/>
</g>
<defs>
<clipPath id="clip0_0_58">
<rect width="30" height="30" fill="white"/>
</clipPath>
</defs>
</svg>
