<svg preserveAspectRatio="none" width="100%" height="100%" overflow="visible" style="display: block;" viewBox="0 0 30 30" fill="none" xmlns="http://www.w3.org/2000/svg">
<g id="SVG" clip-path="url(#clip0_0_30)">
<path id="Vector" d="M29.1346 15C29.1346 7.19367 22.8063 0.865385 15 0.865385C7.19367 0.865385 0.865385 7.19367 0.865385 15C0.865385 22.8063 7.19367 29.1346 15 29.1346C22.8063 29.1346 29.1346 22.8063 29.1346 15Z" stroke="var(--stroke-0, #060A18)" stroke-width="1.73077"/>
<path id="Vector_2" d="M14.5164 25.9615C14.5333 25.1661 14.5333 24.2015 14.5164 23.0677C14.5164 21.9339 14.5164 20.7069 14.5164 19.3869C14.5164 18.0669 14.5164 16.7469 14.5164 15.4269C14.5333 14.1238 14.5756 12.9561 14.6433 11.9238C14.7279 10.8916 14.7787 10.0623 14.7957 9.43615L15.938 9.00462C15.701 9.47844 15.4049 10.0454 15.0495 10.7054C14.6941 11.3485 14.2964 12.0762 13.8564 12.8885L12.3587 11.4162C12.968 10.6715 13.5602 9.96075 14.1357 9.28385C14.7279 8.60694 15.261 7.98923 15.7349 7.43077C16.2256 6.8554 16.6318 6.39 16.9533 6.03462C16.9533 6.89769 16.9449 7.97233 16.928 9.25846C16.928 10.5446 16.928 11.9323 16.928 13.4215C16.928 14.9108 16.9195 16.4254 16.9026 17.9654C16.9026 19.4885 16.9026 20.9439 16.9026 22.3315C16.9026 23.7023 16.9026 24.9123 16.9026 25.9615H14.5164Z" fill="var(--fill-0, #060A18)"/>
</g>
<defs>
<clipPath id="clip0_0_30">
<rect width="30" height="30" fill="white"/>
</clipPath>
</defs>
</svg>
