<svg preserveAspectRatio="none" width="100%" height="100%" overflow="visible" style="display: block;" viewBox="0 0 30 30" fill="none" xmlns="http://www.w3.org/2000/svg">
<g id="SVG" clip-path="url(#clip0_0_55)">
<path id="Vector" d="M29.1346 15C29.1346 7.19367 22.8063 0.865385 15 0.865385C7.19367 0.865385 0.865385 7.19367 0.865385 15C0.865385 22.8063 7.19367 29.1346 15 29.1346C22.8063 29.1346 29.1346 22.8063 29.1346 15Z" stroke="var(--stroke-0, #060A18)" stroke-width="1.73077"/>
<path id="Vector_2" d="M15.1317 26.2408C14.3702 26.2408 13.7609 25.97 13.304 25.4285C12.864 24.87 12.5425 24.0916 12.3394 23.0931C12.1363 22.0946 12.0348 20.9269 12.0348 19.59C12.0348 19.1331 12.0348 18.6931 12.0348 18.27C12.0517 17.83 12.0686 17.4154 12.0856 17.0262C12.1194 16.6369 12.1447 16.29 12.1617 15.9854L14.4463 16.0362C14.4463 16.3577 14.4378 16.7046 14.4209 17.0769C14.404 17.4323 14.3871 17.8046 14.3702 18.1938C14.3702 18.5661 14.3702 18.9469 14.3702 19.3362C14.3702 19.9962 14.3786 20.6054 14.3956 21.1638C14.4294 21.7223 14.4717 22.2131 14.5225 22.6362C14.5732 23.0592 14.6409 23.3892 14.7256 23.6262C14.8271 23.8631 14.9455 23.9815 15.0809 23.9815C15.1825 23.9815 15.2755 23.8631 15.3601 23.6262C15.4617 23.3892 15.5379 23.0677 15.5886 22.6615C15.6563 22.2385 15.7071 21.7562 15.7409 21.2146C15.7747 20.6562 15.7917 20.0723 15.7917 19.4631C15.7917 17.7708 15.6986 16.4 15.5125 15.3508C15.3263 14.2846 15.0894 13.7515 14.8017 13.7515C14.7002 13.7515 14.6155 13.7854 14.5479 13.8531C14.4971 13.9038 14.4294 14.0054 14.3448 14.1577L12.5679 13.2438C12.8047 12.7869 13.084 12.22 13.4056 11.5431C13.7271 10.8662 14.0656 10.1638 14.4209 9.43615C14.7932 8.70848 15.1317 8.04 15.4363 7.43077L15.6648 9.03C15.2924 9.03 14.8101 9.03848 14.2179 9.05538C13.6255 9.05538 12.9824 9.07229 12.2886 9.10615V6.92308H18.1524C17.9494 7.27846 17.6871 7.74387 17.3656 8.31923C17.044 8.8946 16.7056 9.50383 16.3502 10.1469C16.0117 10.79 15.7071 11.3823 15.4363 11.9238C15.1655 12.4654 14.9624 12.88 14.8271 13.1677L13.9894 12.99C14.294 12.6346 14.5648 12.3639 14.8017 12.1777C15.0556 11.9746 15.3517 11.8731 15.6902 11.8731C16.4178 11.8731 17.0102 12.5331 17.4671 13.8531C17.924 15.1562 18.1524 16.9415 18.1524 19.2092C18.1524 20.0892 18.1101 20.8931 18.0256 21.6208C17.9578 22.3484 17.8479 23 17.6956 23.5754C17.5432 24.1507 17.3486 24.6415 17.1117 25.0477C16.8748 25.4369 16.5871 25.7331 16.2486 25.9362C15.9271 26.1392 15.5548 26.2408 15.1317 26.2408Z" fill="var(--fill-0, #060A18)"/>
</g>
<defs>
<clipPath id="clip0_0_55">
<rect width="30" height="30" fill="white"/>
</clipPath>
</defs>
</svg>
